# xmcd
#
# Track frame offsets:
#	182
#	16230
#	30370
#	48997
#	64122
#	78152
#	87382
#	107202
#	150727
#	164822
#	173602
#	185787
#	196905
#
# Disc length: 2767
#
# Revision: 2
# Processed by: cddbd v1.5.1PL0 Copyright (c) Steve Scherf et al.
# Submitted via: CDex 1.30PlusFR
# Normalized: r1:TDELIM( - )
#
DISCID=a10acd0d
DTITLE=The Blues at NEWPORT - 1964 - Complete Edition - Disk 2
DYEAR=1965
DGENRE=Blues
TTITLE0=Mississippi John Hurt - Sliding Delta
TTITLE1=Mississippi John Hurt - Bye and bye I will see Jesus
TTITLE2=Mississippi John Hurt - Talking Casey
TTITLE3=Skip James - Devil got my woman
TTITLE4=Skip James - Cherry ball blues
TTITLE5=Skip James - Sick bed blues
TTITLE6=Skip James - Cypress grove blues
TTITLE7=Rev. Robert Wilkins - The prodigal son
TTITLE8=Elizabeth Cotton - Freight train
TTITLE9=Elizabeth Cotton - Oh baby it ain't no lie
TTITLE10=Willie Doss - Coal black mare
TTITLE11=Willie Doss - I had a woman
TTITLE12=Willie Doss - Hobo blues
EXTD=YEAR: 1965 ID3G:   0
EXTT0=
EXTT1=
EXTT2=
EXTT3=
EXTT4=
EXTT5=
EXTT6=
EXTT7=
EXTT8=
EXTT9=
EXTT10=
EXTT11=
EXTT12=
PLAYORDER=
